<mxfile host="app.diagrams.net" modified="2021-06-25T11:28:13.012Z" agent="5.0 (Macintosh; Intel Mac OS X 10_15_7) AppleWebKit/537.36 (KHTML, like Gecko) Chrome/91.0.4472.106 Safari/537.36" etag="zeHx9xwgJ-DihrThYPC-" version="14.7.0" type="github">
  <diagram id="BwOSBp48OYiSH1dpokI9" name="Page-1">
    <mxGraphModel dx="2025" dy="2298" grid="1" gridSize="10" guides="1" tooltips="1" connect="1" arrows="1" fold="1" page="1" pageScale="1" pageWidth="827" pageHeight="1169" math="0" shadow="0">
      <root>
        <mxCell id="0" />
        <mxCell id="1" parent="0" />
        <mxCell id="-mIfDHSUPJoPvfxh9Jht-90" value="" style="rounded=0;whiteSpace=wrap;html=1;strokeColor=#666666;fontColor=#666666;" vertex="1" parent="1">
          <mxGeometry x="45" y="-260" width="1100" height="730" as="geometry" />
        </mxCell>
        <mxCell id="-mIfDHSUPJoPvfxh9Jht-35" value="" style="rounded=0;whiteSpace=wrap;html=1;strokeColor=#666666;fontColor=#666666;" vertex="1" parent="1">
          <mxGeometry x="51" y="-1090" width="870" height="780" as="geometry" />
        </mxCell>
        <mxCell id="-mIfDHSUPJoPvfxh9Jht-29" value="" style="rounded=0;whiteSpace=wrap;html=1;fillColor=none;dashed=1;strokeColor=#666666;fontColor=#666666;" vertex="1" parent="1">
          <mxGeometry x="71" y="-630" width="710" height="290" as="geometry" />
        </mxCell>
        <mxCell id="-mIfDHSUPJoPvfxh9Jht-12" style="edgeStyle=orthogonalEdgeStyle;rounded=0;orthogonalLoop=1;jettySize=auto;html=1;fontColor=#FF0000;" edge="1" parent="1" source="-mIfDHSUPJoPvfxh9Jht-6" target="-mIfDHSUPJoPvfxh9Jht-7">
          <mxGeometry relative="1" as="geometry" />
        </mxCell>
        <mxCell id="-mIfDHSUPJoPvfxh9Jht-6" value="&lt;font&gt;&lt;span&gt;p_h5_biz&lt;br&gt;&lt;/span&gt;&lt;/font&gt;" style="ellipse;whiteSpace=wrap;html=1;aspect=fixed;strokeColor=#d79b00;fillColor=#ffe6cc;fontStyle=1;fontColor=#FF0000;" vertex="1" parent="1">
          <mxGeometry x="381" y="-900" width="80" height="80" as="geometry" />
        </mxCell>
        <mxCell id="-mIfDHSUPJoPvfxh9Jht-21" style="edgeStyle=none;rounded=0;orthogonalLoop=1;jettySize=auto;html=1;" edge="1" parent="1" source="-mIfDHSUPJoPvfxh9Jht-7" target="-mIfDHSUPJoPvfxh9Jht-13">
          <mxGeometry relative="1" as="geometry" />
        </mxCell>
        <mxCell id="-mIfDHSUPJoPvfxh9Jht-22" style="edgeStyle=none;rounded=0;orthogonalLoop=1;jettySize=auto;html=1;" edge="1" parent="1" source="-mIfDHSUPJoPvfxh9Jht-7" target="-mIfDHSUPJoPvfxh9Jht-14">
          <mxGeometry relative="1" as="geometry" />
        </mxCell>
        <mxCell id="-mIfDHSUPJoPvfxh9Jht-7" value="&lt;span&gt;&lt;font&gt;p_h5&lt;/font&gt;&lt;/span&gt;" style="ellipse;whiteSpace=wrap;html=1;aspect=fixed;strokeColor=#d79b00;fillColor=#ffe6cc;fontStyle=1;fontColor=#FF0000;" vertex="1" parent="1">
          <mxGeometry x="381" y="-730" width="80" height="80" as="geometry" />
        </mxCell>
        <mxCell id="-mIfDHSUPJoPvfxh9Jht-18" style="rounded=0;orthogonalLoop=1;jettySize=auto;html=1;strokeColor=#666666;fontColor=#666666;" edge="1" parent="1" source="-mIfDHSUPJoPvfxh9Jht-13" target="-mIfDHSUPJoPvfxh9Jht-15">
          <mxGeometry relative="1" as="geometry" />
        </mxCell>
        <mxCell id="-mIfDHSUPJoPvfxh9Jht-19" style="edgeStyle=none;rounded=0;orthogonalLoop=1;jettySize=auto;html=1;strokeColor=#666666;fontColor=#666666;" edge="1" parent="1" source="-mIfDHSUPJoPvfxh9Jht-13" target="-mIfDHSUPJoPvfxh9Jht-16">
          <mxGeometry relative="1" as="geometry" />
        </mxCell>
        <mxCell id="-mIfDHSUPJoPvfxh9Jht-20" style="edgeStyle=none;rounded=0;orthogonalLoop=1;jettySize=auto;html=1;strokeColor=#666666;fontColor=#666666;" edge="1" parent="1" source="-mIfDHSUPJoPvfxh9Jht-13" target="-mIfDHSUPJoPvfxh9Jht-17">
          <mxGeometry relative="1" as="geometry" />
        </mxCell>
        <mxCell id="-mIfDHSUPJoPvfxh9Jht-13" value="&lt;b&gt;&lt;font&gt;p_h5_inner_1&lt;/font&gt;&lt;/b&gt;" style="ellipse;whiteSpace=wrap;html=1;aspect=fixed;fillColor=#ffe6cc;strokeColor=#666666;fontColor=#666666;" vertex="1" parent="1">
          <mxGeometry x="200.5" y="-599" width="79" height="79" as="geometry" />
        </mxCell>
        <mxCell id="-mIfDHSUPJoPvfxh9Jht-26" style="edgeStyle=none;rounded=0;orthogonalLoop=1;jettySize=auto;html=1;strokeColor=#666666;fontColor=#666666;" edge="1" parent="1" source="-mIfDHSUPJoPvfxh9Jht-14" target="-mIfDHSUPJoPvfxh9Jht-23">
          <mxGeometry relative="1" as="geometry" />
        </mxCell>
        <mxCell id="-mIfDHSUPJoPvfxh9Jht-27" style="edgeStyle=none;rounded=0;orthogonalLoop=1;jettySize=auto;html=1;strokeColor=#666666;fontColor=#666666;" edge="1" parent="1" source="-mIfDHSUPJoPvfxh9Jht-14" target="-mIfDHSUPJoPvfxh9Jht-24">
          <mxGeometry relative="1" as="geometry" />
        </mxCell>
        <mxCell id="-mIfDHSUPJoPvfxh9Jht-28" style="edgeStyle=none;rounded=0;orthogonalLoop=1;jettySize=auto;html=1;strokeColor=#666666;fontColor=#666666;" edge="1" parent="1" source="-mIfDHSUPJoPvfxh9Jht-14" target="-mIfDHSUPJoPvfxh9Jht-25">
          <mxGeometry relative="1" as="geometry" />
        </mxCell>
        <mxCell id="-mIfDHSUPJoPvfxh9Jht-14" value="&lt;b&gt;&lt;font&gt;p_h5_inner_2&lt;/font&gt;&lt;/b&gt;" style="ellipse;whiteSpace=wrap;html=1;aspect=fixed;fillColor=#ffe6cc;strokeColor=#666666;fontColor=#666666;" vertex="1" parent="1">
          <mxGeometry x="571" y="-599" width="80" height="80" as="geometry" />
        </mxCell>
        <mxCell id="-mIfDHSUPJoPvfxh9Jht-15" value="&lt;b&gt;&lt;font&gt;e1&lt;/font&gt;&lt;/b&gt;" style="ellipse;whiteSpace=wrap;html=1;aspect=fixed;fillColor=#ffe6cc;strokeColor=#666666;fontColor=#666666;" vertex="1" parent="1">
          <mxGeometry x="90" y="-440" width="70" height="70" as="geometry" />
        </mxCell>
        <mxCell id="-mIfDHSUPJoPvfxh9Jht-16" value="&lt;b&gt;&lt;font&gt;e2&lt;/font&gt;&lt;/b&gt;" style="ellipse;whiteSpace=wrap;html=1;aspect=fixed;fillColor=#ffe6cc;strokeColor=#666666;fontColor=#666666;" vertex="1" parent="1">
          <mxGeometry x="205" y="-440" width="70" height="70" as="geometry" />
        </mxCell>
        <mxCell id="-mIfDHSUPJoPvfxh9Jht-17" value="&lt;b&gt;&lt;font&gt;...&lt;/font&gt;&lt;/b&gt;" style="ellipse;whiteSpace=wrap;html=1;aspect=fixed;fillColor=#ffe6cc;strokeColor=#666666;fontColor=#666666;" vertex="1" parent="1">
          <mxGeometry x="311" y="-440" width="70" height="70" as="geometry" />
        </mxCell>
        <mxCell id="-mIfDHSUPJoPvfxh9Jht-23" value="&lt;b&gt;&lt;font&gt;e1&lt;/font&gt;&lt;/b&gt;" style="ellipse;whiteSpace=wrap;html=1;aspect=fixed;fillColor=#ffe6cc;strokeColor=#666666;fontColor=#666666;" vertex="1" parent="1">
          <mxGeometry x="461" y="-440" width="70" height="70" as="geometry" />
        </mxCell>
        <mxCell id="-mIfDHSUPJoPvfxh9Jht-24" value="&lt;b&gt;&lt;font&gt;e2&lt;/font&gt;&lt;/b&gt;" style="ellipse;whiteSpace=wrap;html=1;aspect=fixed;fillColor=#ffe6cc;strokeColor=#666666;fontColor=#666666;" vertex="1" parent="1">
          <mxGeometry x="576" y="-440" width="70" height="70" as="geometry" />
        </mxCell>
        <mxCell id="-mIfDHSUPJoPvfxh9Jht-25" value="&lt;b&gt;&lt;font&gt;...&lt;/font&gt;&lt;/b&gt;" style="ellipse;whiteSpace=wrap;html=1;aspect=fixed;fillColor=#ffe6cc;strokeColor=#666666;fontColor=#666666;" vertex="1" parent="1">
          <mxGeometry x="682" y="-440" width="70" height="70" as="geometry" />
        </mxCell>
        <mxCell id="-mIfDHSUPJoPvfxh9Jht-30" value="&lt;b&gt;&lt;font style=&quot;font-size: 15px&quot;&gt;H5内部&lt;/font&gt;&lt;/b&gt;" style="text;html=1;fillColor=none;align=left;verticalAlign=middle;whiteSpace=wrap;rounded=0;dashed=1;strokeColor=#666666;fontColor=#666666;" vertex="1" parent="1">
          <mxGeometry x="71" y="-630" width="80" height="30" as="geometry" />
        </mxCell>
        <mxCell id="-mIfDHSUPJoPvfxh9Jht-32" style="edgeStyle=none;rounded=0;orthogonalLoop=1;jettySize=auto;html=1;fontColor=#666666;dashed=1;strokeColor=#666666;" edge="1" parent="1" source="-mIfDHSUPJoPvfxh9Jht-31" target="-mIfDHSUPJoPvfxh9Jht-6">
          <mxGeometry relative="1" as="geometry" />
        </mxCell>
        <mxCell id="-mIfDHSUPJoPvfxh9Jht-31" value="1. 一般我们业务层面都会在 UIWebView/WKWebView 外侧包一层VC&lt;br&gt;2. 该VC在一个app中一般都是统一的一个" style="shape=callout;whiteSpace=wrap;html=1;perimeter=calloutPerimeter;dashed=1;fontColor=#666666;fillColor=none;strokeColor=#666666;align=left;" vertex="1" parent="1">
          <mxGeometry x="90" y="-1030" width="385" height="80" as="geometry" />
        </mxCell>
        <mxCell id="-mIfDHSUPJoPvfxh9Jht-34" style="edgeStyle=none;rounded=0;orthogonalLoop=1;jettySize=auto;html=1;dashed=1;fontColor=#666666;strokeColor=#666666;" edge="1" parent="1" source="-mIfDHSUPJoPvfxh9Jht-33" target="-mIfDHSUPJoPvfxh9Jht-7">
          <mxGeometry relative="1" as="geometry" />
        </mxCell>
        <mxCell id="-mIfDHSUPJoPvfxh9Jht-33" value="1. UIWebView/WKWebView, 或者app内SDK层面包的一层View&lt;br&gt;2. 比如云音乐这边就是 NEWebView, 内部使用的 UI/WK WebView&lt;br&gt;2. 该View在一个app中一般都是统一的一个" style="shape=callout;whiteSpace=wrap;html=1;perimeter=calloutPerimeter;dashed=1;fontColor=#666666;fillColor=none;strokeColor=#666666;align=left;" vertex="1" parent="1">
          <mxGeometry x="520" y="-870" width="358" height="80" as="geometry" />
        </mxCell>
        <mxCell id="-mIfDHSUPJoPvfxh9Jht-36" value="&lt;font style=&quot;font-size: 16px&quot;&gt;1. H5/小程序等场景的常见页面层级结构&lt;/font&gt;" style="text;html=1;fillColor=none;align=left;verticalAlign=middle;whiteSpace=wrap;rounded=0;strokeColor=#000000;" vertex="1" parent="1">
          <mxGeometry x="50" y="-1090" width="320" height="40" as="geometry" />
        </mxCell>
        <mxCell id="-mIfDHSUPJoPvfxh9Jht-37" value="" style="rounded=0;whiteSpace=wrap;html=1;strokeColor=#666666;fontColor=#666666;" vertex="1" parent="1">
          <mxGeometry x="991" y="-1090" width="870" height="780" as="geometry" />
        </mxCell>
        <mxCell id="-mIfDHSUPJoPvfxh9Jht-38" value="" style="rounded=0;whiteSpace=wrap;html=1;fillColor=none;dashed=1;strokeColor=#666666;fontColor=#666666;" vertex="1" parent="1">
          <mxGeometry x="1011" y="-630" width="710" height="290" as="geometry" />
        </mxCell>
        <mxCell id="-mIfDHSUPJoPvfxh9Jht-39" style="edgeStyle=orthogonalEdgeStyle;rounded=0;orthogonalLoop=1;jettySize=auto;html=1;fontColor=#FF0000;" edge="1" parent="1" source="-mIfDHSUPJoPvfxh9Jht-40" target="-mIfDHSUPJoPvfxh9Jht-43">
          <mxGeometry relative="1" as="geometry" />
        </mxCell>
        <mxCell id="-mIfDHSUPJoPvfxh9Jht-40" value="&lt;font&gt;&lt;span&gt;p_biz_xxx&lt;br&gt;&lt;/span&gt;&lt;/font&gt;" style="ellipse;whiteSpace=wrap;html=1;aspect=fixed;strokeColor=#d79b00;fillColor=#ffe6cc;fontStyle=1;fontColor=#FF0000;" vertex="1" parent="1">
          <mxGeometry x="1321" y="-920" width="80" height="80" as="geometry" />
        </mxCell>
        <mxCell id="-mIfDHSUPJoPvfxh9Jht-41" style="edgeStyle=none;rounded=0;orthogonalLoop=1;jettySize=auto;html=1;" edge="1" parent="1" source="-mIfDHSUPJoPvfxh9Jht-43" target="-mIfDHSUPJoPvfxh9Jht-47">
          <mxGeometry relative="1" as="geometry" />
        </mxCell>
        <mxCell id="-mIfDHSUPJoPvfxh9Jht-42" style="edgeStyle=none;rounded=0;orthogonalLoop=1;jettySize=auto;html=1;" edge="1" parent="1" source="-mIfDHSUPJoPvfxh9Jht-43" target="-mIfDHSUPJoPvfxh9Jht-51">
          <mxGeometry relative="1" as="geometry" />
        </mxCell>
        <mxCell id="-mIfDHSUPJoPvfxh9Jht-43" value="&lt;span&gt;&lt;font&gt;p_h5&lt;/font&gt;&lt;/span&gt;" style="ellipse;whiteSpace=wrap;html=1;aspect=fixed;strokeColor=#d79b00;fillColor=#ffe6cc;fontStyle=1;" vertex="1" parent="1">
          <mxGeometry x="1321" y="-730" width="80" height="80" as="geometry" />
        </mxCell>
        <mxCell id="-mIfDHSUPJoPvfxh9Jht-44" style="rounded=0;orthogonalLoop=1;jettySize=auto;html=1;strokeColor=#666666;fontColor=#666666;" edge="1" parent="1" source="-mIfDHSUPJoPvfxh9Jht-47" target="-mIfDHSUPJoPvfxh9Jht-52">
          <mxGeometry relative="1" as="geometry" />
        </mxCell>
        <mxCell id="-mIfDHSUPJoPvfxh9Jht-45" style="edgeStyle=none;rounded=0;orthogonalLoop=1;jettySize=auto;html=1;strokeColor=#666666;fontColor=#666666;" edge="1" parent="1" source="-mIfDHSUPJoPvfxh9Jht-47" target="-mIfDHSUPJoPvfxh9Jht-53">
          <mxGeometry relative="1" as="geometry" />
        </mxCell>
        <mxCell id="-mIfDHSUPJoPvfxh9Jht-46" style="edgeStyle=none;rounded=0;orthogonalLoop=1;jettySize=auto;html=1;strokeColor=#666666;fontColor=#666666;" edge="1" parent="1" source="-mIfDHSUPJoPvfxh9Jht-47" target="-mIfDHSUPJoPvfxh9Jht-54">
          <mxGeometry relative="1" as="geometry" />
        </mxCell>
        <mxCell id="-mIfDHSUPJoPvfxh9Jht-47" value="&lt;b&gt;&lt;font&gt;p_h5_inner_1&lt;/font&gt;&lt;/b&gt;" style="ellipse;whiteSpace=wrap;html=1;aspect=fixed;fillColor=#ffe6cc;strokeColor=#666666;fontColor=#666666;" vertex="1" parent="1">
          <mxGeometry x="1140.5" y="-599" width="79" height="79" as="geometry" />
        </mxCell>
        <mxCell id="-mIfDHSUPJoPvfxh9Jht-48" style="edgeStyle=none;rounded=0;orthogonalLoop=1;jettySize=auto;html=1;strokeColor=#666666;fontColor=#666666;" edge="1" parent="1" source="-mIfDHSUPJoPvfxh9Jht-51" target="-mIfDHSUPJoPvfxh9Jht-55">
          <mxGeometry relative="1" as="geometry" />
        </mxCell>
        <mxCell id="-mIfDHSUPJoPvfxh9Jht-49" style="edgeStyle=none;rounded=0;orthogonalLoop=1;jettySize=auto;html=1;strokeColor=#666666;fontColor=#666666;" edge="1" parent="1" source="-mIfDHSUPJoPvfxh9Jht-51" target="-mIfDHSUPJoPvfxh9Jht-56">
          <mxGeometry relative="1" as="geometry" />
        </mxCell>
        <mxCell id="-mIfDHSUPJoPvfxh9Jht-50" style="edgeStyle=none;rounded=0;orthogonalLoop=1;jettySize=auto;html=1;strokeColor=#666666;fontColor=#666666;" edge="1" parent="1" source="-mIfDHSUPJoPvfxh9Jht-51" target="-mIfDHSUPJoPvfxh9Jht-57">
          <mxGeometry relative="1" as="geometry" />
        </mxCell>
        <mxCell id="-mIfDHSUPJoPvfxh9Jht-51" value="&lt;b&gt;&lt;font&gt;p_h5_inner_2&lt;/font&gt;&lt;/b&gt;" style="ellipse;whiteSpace=wrap;html=1;aspect=fixed;fillColor=#ffe6cc;strokeColor=#666666;fontColor=#666666;" vertex="1" parent="1">
          <mxGeometry x="1511" y="-599" width="80" height="80" as="geometry" />
        </mxCell>
        <mxCell id="-mIfDHSUPJoPvfxh9Jht-52" value="&lt;b&gt;&lt;font&gt;e1&lt;/font&gt;&lt;/b&gt;" style="ellipse;whiteSpace=wrap;html=1;aspect=fixed;fillColor=#ffe6cc;strokeColor=#666666;fontColor=#666666;" vertex="1" parent="1">
          <mxGeometry x="1030" y="-440" width="70" height="70" as="geometry" />
        </mxCell>
        <mxCell id="-mIfDHSUPJoPvfxh9Jht-53" value="&lt;b&gt;&lt;font&gt;e2&lt;/font&gt;&lt;/b&gt;" style="ellipse;whiteSpace=wrap;html=1;aspect=fixed;fillColor=#ffe6cc;strokeColor=#666666;fontColor=#666666;" vertex="1" parent="1">
          <mxGeometry x="1145" y="-440" width="70" height="70" as="geometry" />
        </mxCell>
        <mxCell id="-mIfDHSUPJoPvfxh9Jht-54" value="&lt;b&gt;&lt;font&gt;...&lt;/font&gt;&lt;/b&gt;" style="ellipse;whiteSpace=wrap;html=1;aspect=fixed;fillColor=#ffe6cc;strokeColor=#666666;fontColor=#666666;" vertex="1" parent="1">
          <mxGeometry x="1251" y="-440" width="70" height="70" as="geometry" />
        </mxCell>
        <mxCell id="-mIfDHSUPJoPvfxh9Jht-55" value="&lt;b&gt;&lt;font&gt;e1&lt;/font&gt;&lt;/b&gt;" style="ellipse;whiteSpace=wrap;html=1;aspect=fixed;fillColor=#ffe6cc;strokeColor=#666666;fontColor=#666666;" vertex="1" parent="1">
          <mxGeometry x="1401" y="-440" width="70" height="70" as="geometry" />
        </mxCell>
        <mxCell id="-mIfDHSUPJoPvfxh9Jht-56" value="&lt;b&gt;&lt;font&gt;e2&lt;/font&gt;&lt;/b&gt;" style="ellipse;whiteSpace=wrap;html=1;aspect=fixed;fillColor=#ffe6cc;strokeColor=#666666;fontColor=#666666;" vertex="1" parent="1">
          <mxGeometry x="1516" y="-440" width="70" height="70" as="geometry" />
        </mxCell>
        <mxCell id="-mIfDHSUPJoPvfxh9Jht-57" value="&lt;b&gt;&lt;font&gt;...&lt;/font&gt;&lt;/b&gt;" style="ellipse;whiteSpace=wrap;html=1;aspect=fixed;fillColor=#ffe6cc;strokeColor=#666666;fontColor=#666666;" vertex="1" parent="1">
          <mxGeometry x="1622" y="-440" width="70" height="70" as="geometry" />
        </mxCell>
        <mxCell id="-mIfDHSUPJoPvfxh9Jht-58" value="&lt;b&gt;&lt;font style=&quot;font-size: 15px&quot;&gt;H5内部&lt;/font&gt;&lt;/b&gt;" style="text;html=1;fillColor=none;align=left;verticalAlign=middle;whiteSpace=wrap;rounded=0;dashed=1;strokeColor=#666666;fontColor=#666666;" vertex="1" parent="1">
          <mxGeometry x="1011" y="-630" width="80" height="30" as="geometry" />
        </mxCell>
        <mxCell id="-mIfDHSUPJoPvfxh9Jht-59" style="edgeStyle=none;rounded=0;orthogonalLoop=1;jettySize=auto;html=1;fontColor=#666666;dashed=1;strokeColor=#666666;" edge="1" parent="1" source="-mIfDHSUPJoPvfxh9Jht-60" target="-mIfDHSUPJoPvfxh9Jht-40">
          <mxGeometry relative="1" as="geometry" />
        </mxCell>
        <mxCell id="-mIfDHSUPJoPvfxh9Jht-60" value="1. 业务VC" style="shape=callout;whiteSpace=wrap;html=1;perimeter=calloutPerimeter;dashed=1;fontColor=#666666;fillColor=none;strokeColor=#666666;align=left;" vertex="1" parent="1">
          <mxGeometry x="1071" y="-1020" width="159" height="60" as="geometry" />
        </mxCell>
        <mxCell id="-mIfDHSUPJoPvfxh9Jht-61" style="edgeStyle=none;rounded=0;orthogonalLoop=1;jettySize=auto;html=1;dashed=1;fontColor=#666666;strokeColor=#666666;" edge="1" parent="1" source="-mIfDHSUPJoPvfxh9Jht-62" target="-mIfDHSUPJoPvfxh9Jht-43">
          <mxGeometry relative="1" as="geometry" />
        </mxCell>
        <mxCell id="-mIfDHSUPJoPvfxh9Jht-62" value="1. UIWebView/WKWebView, 或者app内SDK层面包的一层View&lt;br&gt;2. 比如云音乐这边就是 NEWebView, 内部使用的 UI/WK WebView&lt;br&gt;2. 该View在一个app中一般都是统一的一个" style="shape=callout;whiteSpace=wrap;html=1;perimeter=calloutPerimeter;dashed=1;fontColor=#666666;fillColor=none;strokeColor=#666666;align=left;" vertex="1" parent="1">
          <mxGeometry x="1440" y="-860" width="358" height="80" as="geometry" />
        </mxCell>
        <mxCell id="-mIfDHSUPJoPvfxh9Jht-63" value="&lt;font style=&quot;font-size: 16px&quot;&gt;2. H5在业务页面中嵌入(半屏)页面层级结构&lt;/font&gt;" style="text;html=1;fillColor=none;align=left;verticalAlign=middle;whiteSpace=wrap;rounded=0;strokeColor=#000000;" vertex="1" parent="1">
          <mxGeometry x="990" y="-1090" width="350" height="40" as="geometry" />
        </mxCell>
        <mxCell id="-mIfDHSUPJoPvfxh9Jht-65" style="edgeStyle=none;rounded=0;orthogonalLoop=1;jettySize=auto;html=1;dashed=1;fontColor=#000000;strokeColor=#666666;" edge="1" parent="1" source="-mIfDHSUPJoPvfxh9Jht-64" target="-mIfDHSUPJoPvfxh9Jht-6">
          <mxGeometry relative="1" as="geometry" />
        </mxCell>
        <mxCell id="-mIfDHSUPJoPvfxh9Jht-64" value="&lt;b&gt;&lt;font color=&quot;#000000&quot;&gt;关键参数：&lt;/font&gt;&lt;/b&gt;&lt;br&gt;- _oid: page_h5_biz / page_miniprogram&lt;br&gt;- s_cid[针对小程序]: miniprogram_id&lt;br&gt;- s_ctype: h5 / miniprogram" style="shape=callout;whiteSpace=wrap;html=1;perimeter=calloutPerimeter;dashed=1;fontColor=#666666;fillColor=none;strokeColor=#666666;align=left;" vertex="1" parent="1">
          <mxGeometry x="81" y="-930" width="230" height="100" as="geometry" />
        </mxCell>
        <mxCell id="-mIfDHSUPJoPvfxh9Jht-68" style="edgeStyle=none;rounded=0;orthogonalLoop=1;jettySize=auto;html=1;dashed=1;fontColor=#000000;strokeColor=#666666;" edge="1" parent="1" source="-mIfDHSUPJoPvfxh9Jht-66" target="-mIfDHSUPJoPvfxh9Jht-7">
          <mxGeometry relative="1" as="geometry" />
        </mxCell>
        <mxCell id="-mIfDHSUPJoPvfxh9Jht-66" value="&lt;b&gt;&lt;font color=&quot;#000000&quot;&gt;关键参数：&lt;/font&gt;&lt;/b&gt;&lt;br&gt;- _oid: page_h5&lt;br&gt;- s_cid: h5_url&lt;br&gt;- s_ctype: h5" style="shape=callout;whiteSpace=wrap;html=1;perimeter=calloutPerimeter;dashed=1;fontColor=#666666;fillColor=none;strokeColor=#666666;align=left;" vertex="1" parent="1">
          <mxGeometry x="600" y="-770" width="120" height="100" as="geometry" />
        </mxCell>
        <mxCell id="-mIfDHSUPJoPvfxh9Jht-70" style="edgeStyle=none;rounded=0;orthogonalLoop=1;jettySize=auto;html=1;dashed=1;fontColor=#000000;strokeColor=#666666;" edge="1" parent="1" source="-mIfDHSUPJoPvfxh9Jht-69" target="-mIfDHSUPJoPvfxh9Jht-40">
          <mxGeometry relative="1" as="geometry" />
        </mxCell>
        <mxCell id="-mIfDHSUPJoPvfxh9Jht-69" value="&lt;b&gt;&lt;font color=&quot;#000000&quot;&gt;关键参数：&lt;/font&gt;&lt;/b&gt;&lt;br&gt;- _oid: page_biz_xxx&lt;br&gt;- s_cid: biz_id_xxx" style="shape=callout;whiteSpace=wrap;html=1;perimeter=calloutPerimeter;dashed=1;fontColor=#666666;fillColor=none;strokeColor=#666666;align=left;" vertex="1" parent="1">
          <mxGeometry x="1071" y="-940" width="159" height="80" as="geometry" />
        </mxCell>
        <mxCell id="-mIfDHSUPJoPvfxh9Jht-72" style="edgeStyle=none;rounded=0;orthogonalLoop=1;jettySize=auto;html=1;dashed=1;fontColor=#000000;strokeColor=#666666;" edge="1" parent="1" source="-mIfDHSUPJoPvfxh9Jht-71" target="-mIfDHSUPJoPvfxh9Jht-43">
          <mxGeometry relative="1" as="geometry" />
        </mxCell>
        <mxCell id="-mIfDHSUPJoPvfxh9Jht-71" value="&lt;b&gt;&lt;font color=&quot;#000000&quot;&gt;关键参数：&lt;/font&gt;&lt;/b&gt;&lt;br&gt;- _oid: page_h5&lt;br&gt;- s_cid: h5_url&lt;br&gt;- s_ctype: h5" style="shape=callout;whiteSpace=wrap;html=1;perimeter=calloutPerimeter;dashed=1;fontColor=#666666;fillColor=none;strokeColor=#666666;align=left;" vertex="1" parent="1">
          <mxGeometry x="1540" y="-770" width="120" height="100" as="geometry" />
        </mxCell>
        <mxCell id="-mIfDHSUPJoPvfxh9Jht-74" value="" style="html=1;verticalLabelPosition=bottom;labelBackgroundColor=#ffffff;verticalAlign=top;shadow=0;dashed=0;strokeWidth=1;shape=mxgraph.ios7.misc.iphone;strokeColor=#c0c0c0;fontColor=#000000;fillColor=#ffffff;align=left;" vertex="1" parent="1">
          <mxGeometry x="80" y="20" width="200" height="400" as="geometry" />
        </mxCell>
        <mxCell id="-mIfDHSUPJoPvfxh9Jht-75" value="page_biz_A" style="text;html=1;fillColor=none;align=left;verticalAlign=middle;whiteSpace=wrap;rounded=0;fontColor=#000000;strokeColor=#000000;dashed=1;fontStyle=1" vertex="1" parent="1">
          <mxGeometry x="94" y="80" width="75" height="20" as="geometry" />
        </mxCell>
        <mxCell id="-mIfDHSUPJoPvfxh9Jht-82" style="edgeStyle=none;rounded=0;orthogonalLoop=1;jettySize=auto;html=1;dashed=1;fontColor=#000000;strokeColor=#666666;" edge="1" parent="1" source="-mIfDHSUPJoPvfxh9Jht-78" target="-mIfDHSUPJoPvfxh9Jht-79">
          <mxGeometry relative="1" as="geometry" />
        </mxCell>
        <mxCell id="-mIfDHSUPJoPvfxh9Jht-83" value="点击进入H5页面" style="edgeLabel;html=1;align=center;verticalAlign=middle;resizable=0;points=[];fontColor=#000000;" vertex="1" connectable="0" parent="-mIfDHSUPJoPvfxh9Jht-82">
          <mxGeometry x="-0.2281" y="-1" relative="1" as="geometry">
            <mxPoint x="54" y="-1" as="offset" />
          </mxGeometry>
        </mxCell>
        <mxCell id="-mIfDHSUPJoPvfxh9Jht-78" value="btn_a" style="rounded=1;whiteSpace=wrap;html=1;fontColor=#000000;strokeColor=#000000;align=center;fontStyle=1;fillColor=#97D077;" vertex="1" parent="1">
          <mxGeometry x="145.5" y="200" width="69" height="40" as="geometry" />
        </mxCell>
        <mxCell id="-mIfDHSUPJoPvfxh9Jht-79" value="" style="html=1;verticalLabelPosition=bottom;labelBackgroundColor=#ffffff;verticalAlign=top;shadow=0;dashed=0;strokeWidth=1;shape=mxgraph.ios7.misc.iphone;strokeColor=#c0c0c0;fontColor=#000000;fillColor=#ffffff;align=left;" vertex="1" parent="1">
          <mxGeometry x="449" y="20" width="200" height="400" as="geometry" />
        </mxCell>
        <mxCell id="-mIfDHSUPJoPvfxh9Jht-81" value="page_biz_h5" style="text;html=1;fillColor=none;align=left;verticalAlign=middle;whiteSpace=wrap;rounded=0;dashed=1;fontStyle=1;fontColor=#FF0000;strokeColor=#FF0000;" vertex="1" parent="1">
          <mxGeometry x="461" y="80" width="75" height="20" as="geometry" />
        </mxCell>
        <mxCell id="-mIfDHSUPJoPvfxh9Jht-84" value="" style="html=1;verticalLabelPosition=bottom;labelBackgroundColor=#ffffff;verticalAlign=top;shadow=0;dashed=0;strokeWidth=1;shape=mxgraph.ios7.misc.iphone;strokeColor=#c0c0c0;fontColor=#000000;fillColor=#ffffff;align=left;" vertex="1" parent="1">
          <mxGeometry x="859" y="20" width="200" height="400" as="geometry" />
        </mxCell>
        <mxCell id="-mIfDHSUPJoPvfxh9Jht-86" style="edgeStyle=none;rounded=0;orthogonalLoop=1;jettySize=auto;html=1;dashed=1;fontColor=#000000;strokeColor=#666666;" edge="1" parent="1" source="-mIfDHSUPJoPvfxh9Jht-85" target="-mIfDHSUPJoPvfxh9Jht-84">
          <mxGeometry relative="1" as="geometry" />
        </mxCell>
        <mxCell id="-mIfDHSUPJoPvfxh9Jht-85" value="btn_in_h5_2" style="rounded=1;whiteSpace=wrap;html=1;fontColor=#000000;strokeColor=#000000;align=center;fontStyle=1;fillColor=#97D077;" vertex="1" parent="1">
          <mxGeometry x="506.25" y="200" width="85.5" height="40" as="geometry" />
        </mxCell>
        <mxCell id="-mIfDHSUPJoPvfxh9Jht-87" value="page_biz_B" style="text;html=1;fillColor=none;align=left;verticalAlign=middle;whiteSpace=wrap;rounded=0;fontColor=#000000;strokeColor=#000000;dashed=1;fontStyle=1" vertex="1" parent="1">
          <mxGeometry x="873" y="80" width="75" height="20" as="geometry" />
        </mxCell>
        <mxCell id="-mIfDHSUPJoPvfxh9Jht-88" value="点击进入页面 B" style="edgeLabel;html=1;align=center;verticalAlign=middle;resizable=0;points=[];fontColor=#000000;" vertex="1" connectable="0" parent="1">
          <mxGeometry x="389" y="230" as="geometry">
            <mxPoint x="373" y="-13" as="offset" />
          </mxGeometry>
        </mxCell>
        <mxCell id="-mIfDHSUPJoPvfxh9Jht-91" value="&lt;span style=&quot;font-size: 16px&quot;&gt;实际场景分析:&lt;/span&gt;" style="text;html=1;fillColor=none;align=left;verticalAlign=middle;whiteSpace=wrap;rounded=0;strokeColor=#000000;" vertex="1" parent="1">
          <mxGeometry x="45" y="-260" width="145" height="40" as="geometry" />
        </mxCell>
        <mxCell id="-mIfDHSUPJoPvfxh9Jht-92" value="&lt;h1&gt;过程解读&lt;/h1&gt;&lt;p&gt;1. 页面 A 有一个按钮 btn_a, 点击进入一个&lt;font color=&quot;#ff0000&quot;&gt;h5页面 (page_biz_h5)&lt;/font&gt;&lt;br&gt;2. h5页面的结构，参见上图；h5内有两个按钮 btn_in_h5_1 / _2&amp;nbsp;&lt;br&gt;3. h5页面有两个情况:&amp;nbsp;&lt;br&gt;&amp;nbsp; - h5是&lt;b&gt;&lt;font color=&quot;#ff0000&quot;&gt;站内&lt;/font&gt;&lt;/b&gt;的页面，公司的开发人员在h5内做了 “对象化埋点”&lt;br&gt;&amp;nbsp; - h5是&lt;font color=&quot;#ff0000&quot;&gt;&lt;b&gt;站外&lt;/b&gt;&lt;/font&gt;的页面，站外的h5是不会有 “对象化埋点” 的&lt;br&gt;4. h5页面内按钮可以点击&lt;br&gt;&amp;nbsp; - &lt;font color=&quot;#ff0000&quot;&gt;&lt;b&gt;btn_in_h5_1 点击只是h5内的一个事件&lt;/b&gt;&lt;/font&gt;（点击埋点）&lt;br&gt;&amp;nbsp; - &lt;font color=&quot;#ff0000&quot;&gt;btn_in_h5_2 点击会跳转到页面 B&lt;/font&gt; （点击埋点）&lt;/p&gt;" style="text;html=1;fillColor=none;spacing=5;spacingTop=-20;whiteSpace=wrap;overflow=hidden;rounded=0;fontColor=#000000;align=left;strokeColor=#000000;dashed=1;" vertex="1" parent="1">
          <mxGeometry x="85" y="-200" width="385" height="170" as="geometry" />
        </mxCell>
        <mxCell id="-mIfDHSUPJoPvfxh9Jht-93" value="btn_in_h5_1" style="rounded=1;whiteSpace=wrap;html=1;fontColor=#000000;strokeColor=#000000;align=center;fontStyle=1;fillColor=#97D077;" vertex="1" parent="1">
          <mxGeometry x="506.25" y="130" width="85.5" height="40" as="geometry" />
        </mxCell>
        <mxCell id="-mIfDHSUPJoPvfxh9Jht-96" value="&lt;h1&gt;1. 页面A的按钮 btn_a 点击&lt;/h1&gt;&lt;p&gt;1. 点击事件，发生了页面切换 =&amp;gt; &lt;b&gt;&lt;font color=&quot;#ff0000&quot;&gt;page_biz_h5&lt;/font&gt;&lt;/b&gt;&lt;/p&gt;&lt;p&gt;2. page_biz_h5 曝光的时候，_pgrefer = btn_a 的点击&lt;br&gt;&amp;nbsp; &amp;nbsp;=&amp;gt; 格式: [e][_actseq][_pgstep][_spm]&lt;/p&gt;&lt;p&gt;&lt;br&gt;&lt;/p&gt;" style="text;html=1;strokeColor=none;fillColor=none;spacing=5;spacingTop=-20;whiteSpace=wrap;overflow=hidden;rounded=0;align=left;" vertex="1" parent="1">
          <mxGeometry x="45" y="670" width="340" height="120" as="geometry" />
        </mxCell>
        <mxCell id="-mIfDHSUPJoPvfxh9Jht-102" style="edgeStyle=none;rounded=0;orthogonalLoop=1;jettySize=auto;html=1;fontColor=#FF0000;strokeColor=#666666;" edge="1" parent="1" source="-mIfDHSUPJoPvfxh9Jht-97" target="-mIfDHSUPJoPvfxh9Jht-98">
          <mxGeometry relative="1" as="geometry" />
        </mxCell>
        <mxCell id="-mIfDHSUPJoPvfxh9Jht-97" value="&lt;font&gt;&lt;span&gt;p_h5_biz&lt;br&gt;&lt;/span&gt;&lt;/font&gt;" style="ellipse;whiteSpace=wrap;html=1;aspect=fixed;strokeColor=#d79b00;fillColor=#ffe6cc;fontStyle=1;fontColor=#FF0000;" vertex="1" parent="1">
          <mxGeometry x="654.5" y="650" width="80" height="80" as="geometry" />
        </mxCell>
        <mxCell id="-mIfDHSUPJoPvfxh9Jht-98" value="&lt;span&gt;&lt;font&gt;p_h5&lt;/font&gt;&lt;/span&gt;" style="ellipse;whiteSpace=wrap;html=1;aspect=fixed;strokeColor=#d79b00;fillColor=#ffe6cc;fontStyle=1;fontColor=#FF0000;" vertex="1" parent="1">
          <mxGeometry x="654.5" y="790" width="80" height="80" as="geometry" />
        </mxCell>
        <mxCell id="-mIfDHSUPJoPvfxh9Jht-108" style="edgeStyle=none;rounded=0;orthogonalLoop=1;jettySize=auto;html=1;fontColor=#FF0000;strokeColor=#666666;" edge="1" parent="1" source="-mIfDHSUPJoPvfxh9Jht-107" target="-mIfDHSUPJoPvfxh9Jht-97">
          <mxGeometry relative="1" as="geometry" />
        </mxCell>
        <mxCell id="-mIfDHSUPJoPvfxh9Jht-107" value="&lt;b&gt;&lt;font color=&quot;#000000&quot;&gt;refer参数：&lt;/font&gt;&lt;/b&gt;&lt;br&gt;- _oid: page_h5_biz&lt;br&gt;- s_ctype: h5&lt;br&gt;&lt;font color=&quot;#ff0000&quot;&gt;- _pgrefer:&amp;nbsp;&amp;nbsp;[e][4][5][btn_a|page_biz_A]&lt;/font&gt;" style="shape=callout;whiteSpace=wrap;html=1;perimeter=calloutPerimeter;dashed=1;fontColor=#666666;fillColor=none;strokeColor=#666666;align=left;" vertex="1" parent="1">
          <mxGeometry x="834" y="570" width="266" height="120" as="geometry" />
        </mxCell>
        <mxCell id="-mIfDHSUPJoPvfxh9Jht-109" style="edgeStyle=none;rounded=0;orthogonalLoop=1;jettySize=auto;html=1;fontColor=#FF0000;strokeColor=#666666;" edge="1" parent="1" source="-mIfDHSUPJoPvfxh9Jht-110" target="-mIfDHSUPJoPvfxh9Jht-113">
          <mxGeometry relative="1" as="geometry" />
        </mxCell>
        <mxCell id="-mIfDHSUPJoPvfxh9Jht-110" value="&lt;font&gt;&lt;span&gt;p_h5_biz&lt;br&gt;&lt;/span&gt;&lt;/font&gt;" style="ellipse;whiteSpace=wrap;html=1;aspect=fixed;strokeColor=#d79b00;fillColor=#ffe6cc;fontStyle=1;fontColor=#FF0000;" vertex="1" parent="1">
          <mxGeometry x="673.5" y="1050" width="80" height="80" as="geometry" />
        </mxCell>
        <mxCell id="-mIfDHSUPJoPvfxh9Jht-111" style="edgeStyle=none;rounded=0;orthogonalLoop=1;jettySize=auto;html=1;fontColor=#FF0000;strokeColor=#666666;" edge="1" parent="1" source="-mIfDHSUPJoPvfxh9Jht-113" target="-mIfDHSUPJoPvfxh9Jht-114">
          <mxGeometry relative="1" as="geometry" />
        </mxCell>
        <mxCell id="-mIfDHSUPJoPvfxh9Jht-112" style="edgeStyle=none;rounded=0;orthogonalLoop=1;jettySize=auto;html=1;fontColor=#FF0000;strokeColor=#666666;" edge="1" parent="1" source="-mIfDHSUPJoPvfxh9Jht-113" target="-mIfDHSUPJoPvfxh9Jht-115">
          <mxGeometry relative="1" as="geometry" />
        </mxCell>
        <mxCell id="-mIfDHSUPJoPvfxh9Jht-113" value="&lt;span&gt;&lt;font&gt;p_h5&lt;/font&gt;&lt;/span&gt;" style="ellipse;whiteSpace=wrap;html=1;aspect=fixed;strokeColor=#d79b00;fillColor=#ffe6cc;fontStyle=1;fontColor=#FF0000;" vertex="1" parent="1">
          <mxGeometry x="673.5" y="1190" width="80" height="80" as="geometry" />
        </mxCell>
        <mxCell id="-mIfDHSUPJoPvfxh9Jht-114" value="&lt;b&gt;btn_in_h5_1&lt;/b&gt;" style="ellipse;whiteSpace=wrap;html=1;aspect=fixed;fillColor=#ffe6cc;strokeColor=#666666;fontColor=#666666;" vertex="1" parent="1">
          <mxGeometry x="579" y="1340" width="70" height="70" as="geometry" />
        </mxCell>
        <mxCell id="-mIfDHSUPJoPvfxh9Jht-115" value="&lt;b&gt;&lt;font&gt;btn_in_h5_2&lt;/font&gt;&lt;/b&gt;" style="ellipse;whiteSpace=wrap;html=1;aspect=fixed;fillColor=#ffe6cc;strokeColor=#666666;fontColor=#666666;" vertex="1" parent="1">
          <mxGeometry x="808" y="1340" width="70" height="70" as="geometry" />
        </mxCell>
        <mxCell id="-mIfDHSUPJoPvfxh9Jht-117" value="&lt;h1&gt;2. h5页面加载完成&lt;/h1&gt;&lt;p&gt;1. btn_in_h5_1 &amp;amp;&amp;amp; btn_in_h5_2 都露出了&lt;br&gt;&lt;/p&gt;&lt;p&gt;2. 两个按钮需要打曝光开始埋点&lt;b&gt;&lt;font color=&quot;#ff0000&quot;&gt;(以下是站内h5)&lt;/font&gt;&lt;/b&gt;&lt;/p&gt;&lt;p&gt;3. h5内的所有埋点，都通过 &lt;font color=&quot;#ff0000&quot;&gt;RPC/JSBridge&lt;/font&gt; 的方式，交给SDK来打&lt;br&gt;&amp;nbsp; &amp;nbsp; - 这样所有的埋点都可以带上SDK维度的公参等信息&lt;/p&gt;&lt;p&gt;4. 在 RPC/JSBridge 层面知道每一个打点所在的 UI/WK WebView&lt;/p&gt;&lt;p&gt;5. 然后每一个打点json，都拼接上 &lt;b&gt;&lt;font color=&quot;#ff0000&quot;&gt;biz_h5_context&lt;/font&gt;&lt;/b&gt; 参数，格式如下:&lt;br&gt;&lt;/p&gt;&lt;p&gt;6. 这样做到了h5内的埋点，可以 refer 到上一个 native 操作&lt;br&gt;&lt;/p&gt;&lt;p&gt;7. &lt;b&gt;&lt;font color=&quot;#994c00&quot;&gt;h5内有自己的VTree，有自己的层级结构，对Native是透明的&lt;/font&gt;&lt;/b&gt;&lt;/p&gt;" style="text;html=1;strokeColor=none;fillColor=none;spacing=5;spacingTop=-20;whiteSpace=wrap;overflow=hidden;rounded=0;align=left;" vertex="1" parent="1">
          <mxGeometry x="45" y="960" width="375" height="250" as="geometry" />
        </mxCell>
        <mxCell id="-mIfDHSUPJoPvfxh9Jht-119" style="edgeStyle=none;rounded=0;orthogonalLoop=1;jettySize=auto;html=1;fontColor=#FF0000;strokeColor=#666666;" edge="1" parent="1" source="-mIfDHSUPJoPvfxh9Jht-118" target="-mIfDHSUPJoPvfxh9Jht-110">
          <mxGeometry relative="1" as="geometry" />
        </mxCell>
        <mxCell id="-mIfDHSUPJoPvfxh9Jht-118" value="&lt;b&gt;&lt;font color=&quot;#000000&quot;&gt;refer参数：&lt;/font&gt;&lt;/b&gt;&lt;br&gt;- _oid: page_h5_biz&lt;br&gt;- s_ctype: h5&lt;br&gt;- _pgrefer:&amp;nbsp;&amp;nbsp;[e][4][5][btn_a|page_biz_A]" style="shape=callout;whiteSpace=wrap;html=1;perimeter=calloutPerimeter;dashed=1;fontColor=#666666;fillColor=none;strokeColor=#666666;align=left;" vertex="1" parent="1">
          <mxGeometry x="844" y="960" width="266" height="120" as="geometry" />
        </mxCell>
        <mxCell id="-mIfDHSUPJoPvfxh9Jht-121" style="edgeStyle=none;rounded=0;orthogonalLoop=1;jettySize=auto;html=1;fontColor=#FF0000;strokeColor=#666666;" edge="1" parent="1" source="-mIfDHSUPJoPvfxh9Jht-120" target="-mIfDHSUPJoPvfxh9Jht-98">
          <mxGeometry relative="1" as="geometry" />
        </mxCell>
        <mxCell id="-mIfDHSUPJoPvfxh9Jht-120" value="&lt;b&gt;&lt;font color=&quot;#000000&quot;&gt;关键参数：&lt;/font&gt;&lt;/b&gt;&lt;br&gt;- _oid: page_h5&lt;br&gt;- s_cid: h5_url&lt;br&gt;- s_ctype: h5" style="shape=callout;whiteSpace=wrap;html=1;perimeter=calloutPerimeter;dashed=1;fontColor=#666666;fillColor=none;strokeColor=#666666;align=left;" vertex="1" parent="1">
          <mxGeometry x="834" y="720" width="120" height="100" as="geometry" />
        </mxCell>
        <mxCell id="-mIfDHSUPJoPvfxh9Jht-123" style="edgeStyle=none;rounded=0;orthogonalLoop=1;jettySize=auto;html=1;fontColor=#FF0000;strokeColor=#666666;" edge="1" parent="1" source="-mIfDHSUPJoPvfxh9Jht-122" target="-mIfDHSUPJoPvfxh9Jht-113">
          <mxGeometry relative="1" as="geometry" />
        </mxCell>
        <mxCell id="-mIfDHSUPJoPvfxh9Jht-122" value="&lt;b&gt;&lt;font color=&quot;#000000&quot;&gt;关键参数：&lt;/font&gt;&lt;/b&gt;&lt;br&gt;- _oid: page_h5&lt;br&gt;- s_cid: h5_url&lt;br&gt;- s_ctype: h5" style="shape=callout;whiteSpace=wrap;html=1;perimeter=calloutPerimeter;dashed=1;fontColor=#666666;fillColor=none;strokeColor=#666666;align=left;" vertex="1" parent="1">
          <mxGeometry x="844" y="1110" width="120" height="100" as="geometry" />
        </mxCell>
        <mxCell id="-mIfDHSUPJoPvfxh9Jht-125" value="&lt;h1&gt;&lt;font style=&quot;font-size: 18px&quot; color=&quot;#ff6666&quot;&gt;biz_h5_context格式&lt;br&gt;&amp;nbsp; - &lt;/font&gt;&lt;font style=&quot;font-size: 14px&quot; color=&quot;#ff6666&quot;&gt;相当于在 p_h5 节点的基础上，增加了 _h5_source_refer参数&lt;/font&gt;&lt;/h1&gt;&lt;p style=&quot;font-size: 14px&quot;&gt;&lt;font color=&quot;#b5739d&quot;&gt;biz_h5_context: {&lt;br&gt;&amp;nbsp; _oid: page_h5,&amp;nbsp;&lt;/font&gt;&lt;br&gt;&lt;font color=&quot;#b5739d&quot;&gt;&amp;nbsp; s_cid: &#39;url_xxxx&#39;,&lt;/font&gt;&lt;br&gt;&lt;font color=&quot;#b5739d&quot;&gt;&amp;nbsp; s_ctype: &#39;h5&#39;,&lt;/font&gt;&lt;br&gt;&lt;b&gt;&lt;font color=&quot;#ff0000&quot;&gt;&amp;nbsp; _h5_source_refer: page_h5_biz._pgrefer&lt;/font&gt;&lt;/b&gt;&lt;font color=&quot;#b5739d&quot;&gt;,&lt;/font&gt;&lt;br&gt;&lt;font color=&quot;#b5739d&quot;&gt;&amp;nbsp; _pgstep: 6&lt;/font&gt;&lt;br&gt;&lt;span style=&quot;color: rgb(181 , 115 , 157)&quot;&gt;}&lt;/span&gt;&lt;/p&gt;" style="text;html=1;strokeColor=none;spacing=5;spacingTop=-20;whiteSpace=wrap;overflow=hidden;rounded=0;dashed=1;align=left;fontColor=#97D077;fillColor=#E6FFCC;" vertex="1" parent="1">
          <mxGeometry x="45" y="1260" width="430" height="200" as="geometry" />
        </mxCell>
        <mxCell id="-mIfDHSUPJoPvfxh9Jht-128" value="&lt;h1&gt;3. h5页面按钮点击（站内h5）&lt;/h1&gt;&lt;p&gt;1. &lt;b&gt;btn_in_h5_1&lt;/b&gt;: 会打点击埋点&lt;br&gt;&amp;nbsp; &amp;nbsp;=&amp;gt; 一样是通过SDK来埋点&lt;br&gt;&amp;nbsp; &amp;nbsp;=&amp;gt; RPC/JSBridge: eventtracing.log&lt;/p&gt;&lt;p&gt;2. &lt;b&gt;btn_in_h5_2&lt;/b&gt;:&lt;br&gt;&amp;nbsp; &amp;nbsp;=&amp;gt; 1) h5需要先调用 RPC/JSBridge (eventtracing.event)&lt;br&gt;&amp;nbsp; &amp;nbsp; &amp;nbsp; &amp;nbsp; &amp;nbsp; &amp;nbsp; 该方法是为了将该点击事件作为一个refer存入SDK中&lt;b&gt;（SDK的refer队列）&lt;/b&gt;&lt;br&gt;&amp;nbsp; &amp;nbsp; &amp;nbsp; &amp;nbsp; &amp;nbsp; &amp;nbsp; 存进去的完整格式: &lt;font color=&quot;#ff0000&quot;&gt;[e/p][_actseq][_pgstep][_spm]&lt;/font&gt;&lt;b style=&quot;color: rgb(255 , 0 , 0)&quot;&gt;[_refer_from_h5]&lt;br&gt;&amp;nbsp; &amp;nbsp; &amp;nbsp; &amp;nbsp; &amp;nbsp; &amp;nbsp; &lt;/b&gt;&lt;b&gt;_spm: 是 p_h5 节点的spm =&amp;gt; p_h5|p_h5_biz &lt;br&gt;&amp;nbsp; &amp;nbsp; &amp;nbsp; &amp;nbsp; &amp;nbsp; &amp;nbsp; _spm逻辑原因: &lt;font color=&quot;#cc00cc&quot;&gt;h5内所有埋点，在native层面，只追踪到 p_h5 节点&lt;/font&gt;&lt;/b&gt;&lt;b&gt;&lt;br&gt;&lt;/b&gt;&amp;nbsp; &amp;nbsp; &amp;nbsp; &amp;nbsp; &amp;nbsp; &amp;nbsp; _refer_from_h5: 是 h5 内的refer标识&lt;br&gt;&amp;nbsp; &amp;nbsp; &amp;nbsp; &amp;nbsp; &amp;nbsp; &amp;nbsp; 上面的格式是在普通 &lt;b&gt;_pgrefer/eventrefer&lt;/b&gt; 的基础上 增加了一个 &lt;b&gt;[_refer_from_h5]&amp;nbsp;&lt;/b&gt;&lt;br&gt;&amp;nbsp; &amp;nbsp; &amp;nbsp; &amp;nbsp; &amp;nbsp; &amp;nbsp; 注: 这里的 &lt;b&gt;_pgrefer/eventrefer&lt;/b&gt;，以及&lt;b&gt;refer队列&lt;/b&gt; 参见 &lt;b&gt;refer 环节&lt;/b&gt;的讲解&lt;br&gt;&amp;nbsp; &amp;nbsp;=&amp;gt; 2) 然后h5再调用按钮的业务代码: 比如这里是打开另一个页面 B&lt;br&gt;&amp;nbsp; &amp;nbsp;=&amp;gt; 3) 页面 B 被打开&lt;br&gt;&amp;nbsp; &amp;nbsp;=&amp;gt; 4) 页面 B 在即将曝光的时候，会走 _pgrefer 获取逻辑 （该逻辑会用到refer队列）&lt;br&gt;&amp;nbsp; &amp;nbsp;=&amp;gt; 5) 最终结果:&amp;nbsp;&lt;b&gt;&lt;font color=&quot;#ff0000&quot;&gt;B 页面的 _pgrefer 就等于 btn_in_h5_2 按钮的点击&lt;/font&gt;&lt;/b&gt;&lt;/p&gt;" style="text;html=1;strokeColor=none;fillColor=none;spacing=5;spacingTop=-20;whiteSpace=wrap;overflow=hidden;rounded=0;align=left;" vertex="1" parent="1">
          <mxGeometry x="45" y="1529" width="511" height="301" as="geometry" />
        </mxCell>
        <mxCell id="-mIfDHSUPJoPvfxh9Jht-129" style="edgeStyle=none;rounded=0;orthogonalLoop=1;jettySize=auto;html=1;fontColor=#FF0000;strokeColor=#666666;" edge="1" parent="1" source="-mIfDHSUPJoPvfxh9Jht-130" target="-mIfDHSUPJoPvfxh9Jht-133">
          <mxGeometry relative="1" as="geometry" />
        </mxCell>
        <mxCell id="-mIfDHSUPJoPvfxh9Jht-130" value="&lt;font&gt;&lt;span&gt;p_h5_biz&lt;br&gt;&lt;/span&gt;&lt;/font&gt;" style="ellipse;whiteSpace=wrap;html=1;aspect=fixed;strokeColor=#d79b00;fillColor=#ffe6cc;fontStyle=1;fontColor=#FF0000;" vertex="1" parent="1">
          <mxGeometry x="723" y="1619" width="80" height="80" as="geometry" />
        </mxCell>
        <mxCell id="-mIfDHSUPJoPvfxh9Jht-131" style="edgeStyle=none;rounded=0;orthogonalLoop=1;jettySize=auto;html=1;fontColor=#FF0000;strokeColor=#666666;" edge="1" parent="1" source="-mIfDHSUPJoPvfxh9Jht-133" target="-mIfDHSUPJoPvfxh9Jht-134">
          <mxGeometry relative="1" as="geometry" />
        </mxCell>
        <mxCell id="-mIfDHSUPJoPvfxh9Jht-132" style="edgeStyle=none;rounded=0;orthogonalLoop=1;jettySize=auto;html=1;fontColor=#FF0000;strokeColor=#666666;" edge="1" parent="1" source="-mIfDHSUPJoPvfxh9Jht-133" target="-mIfDHSUPJoPvfxh9Jht-135">
          <mxGeometry relative="1" as="geometry" />
        </mxCell>
        <mxCell id="-mIfDHSUPJoPvfxh9Jht-133" value="&lt;span&gt;&lt;font&gt;p_h5&lt;/font&gt;&lt;/span&gt;" style="ellipse;whiteSpace=wrap;html=1;aspect=fixed;strokeColor=#d79b00;fillColor=#ffe6cc;fontStyle=1;fontColor=#FF0000;" vertex="1" parent="1">
          <mxGeometry x="723" y="1759" width="80" height="80" as="geometry" />
        </mxCell>
        <mxCell id="-mIfDHSUPJoPvfxh9Jht-134" value="&lt;b&gt;btn_in_h5_1&lt;/b&gt;" style="ellipse;whiteSpace=wrap;html=1;aspect=fixed;fillColor=#ffe6cc;strokeColor=#666666;fontColor=#666666;" vertex="1" parent="1">
          <mxGeometry x="628.5" y="1909" width="70" height="70" as="geometry" />
        </mxCell>
        <mxCell id="-mIfDHSUPJoPvfxh9Jht-141" style="edgeStyle=none;rounded=0;orthogonalLoop=1;jettySize=auto;html=1;fontColor=#97D077;dashed=1;strokeColor=#FF0000;" edge="1" parent="1" source="-mIfDHSUPJoPvfxh9Jht-135" target="-mIfDHSUPJoPvfxh9Jht-140">
          <mxGeometry relative="1" as="geometry" />
        </mxCell>
        <mxCell id="-mIfDHSUPJoPvfxh9Jht-142" value="refer" style="edgeLabel;html=1;align=center;verticalAlign=middle;resizable=0;points=[];fontColor=#FF0000;fontStyle=1" vertex="1" connectable="0" parent="-mIfDHSUPJoPvfxh9Jht-141">
          <mxGeometry x="0.0518" y="-2" relative="1" as="geometry">
            <mxPoint as="offset" />
          </mxGeometry>
        </mxCell>
        <mxCell id="-mIfDHSUPJoPvfxh9Jht-135" value="&lt;b&gt;&lt;font&gt;btn_in_h5_2&lt;/font&gt;&lt;/b&gt;" style="ellipse;whiteSpace=wrap;html=1;aspect=fixed;fillColor=#ffe6cc;strokeColor=#666666;fontColor=#666666;" vertex="1" parent="1">
          <mxGeometry x="857.5" y="1909" width="70" height="70" as="geometry" />
        </mxCell>
        <mxCell id="-mIfDHSUPJoPvfxh9Jht-136" style="edgeStyle=none;rounded=0;orthogonalLoop=1;jettySize=auto;html=1;fontColor=#FF0000;strokeColor=#666666;" edge="1" parent="1" source="-mIfDHSUPJoPvfxh9Jht-137" target="-mIfDHSUPJoPvfxh9Jht-130">
          <mxGeometry relative="1" as="geometry" />
        </mxCell>
        <mxCell id="-mIfDHSUPJoPvfxh9Jht-137" value="&lt;b&gt;&lt;font color=&quot;#000000&quot;&gt;refer参数：&lt;/font&gt;&lt;/b&gt;&lt;br&gt;- _oid: page_h5_biz&lt;br&gt;- s_ctype: h5&lt;br&gt;- _pgrefer:&amp;nbsp;&amp;nbsp;[e][4][5][btn_a|page_biz_A]" style="shape=callout;whiteSpace=wrap;html=1;perimeter=calloutPerimeter;dashed=1;fontColor=#666666;fillColor=none;strokeColor=#666666;align=left;" vertex="1" parent="1">
          <mxGeometry x="893.5" y="1529" width="266" height="120" as="geometry" />
        </mxCell>
        <mxCell id="-mIfDHSUPJoPvfxh9Jht-138" style="edgeStyle=none;rounded=0;orthogonalLoop=1;jettySize=auto;html=1;fontColor=#FF0000;strokeColor=#666666;" edge="1" parent="1" source="-mIfDHSUPJoPvfxh9Jht-139" target="-mIfDHSUPJoPvfxh9Jht-133">
          <mxGeometry relative="1" as="geometry" />
        </mxCell>
        <mxCell id="-mIfDHSUPJoPvfxh9Jht-139" value="&lt;b&gt;&lt;font color=&quot;#000000&quot;&gt;关键参数：&lt;/font&gt;&lt;/b&gt;&lt;br&gt;- _oid: page_h5&lt;br&gt;- s_cid: h5_url&lt;br&gt;- s_ctype: h5" style="shape=callout;whiteSpace=wrap;html=1;perimeter=calloutPerimeter;dashed=1;fontColor=#666666;fillColor=none;strokeColor=#666666;align=left;" vertex="1" parent="1">
          <mxGeometry x="893.5" y="1679" width="120" height="100" as="geometry" />
        </mxCell>
        <mxCell id="-mIfDHSUPJoPvfxh9Jht-140" value="&lt;span&gt;&lt;font&gt;p_B&lt;/font&gt;&lt;/span&gt;" style="ellipse;whiteSpace=wrap;html=1;aspect=fixed;strokeColor=#d79b00;fillColor=#ffe6cc;fontStyle=1;fontColor=#FF0000;" vertex="1" parent="1">
          <mxGeometry x="1340" y="1619" width="80" height="80" as="geometry" />
        </mxCell>
        <mxCell id="-mIfDHSUPJoPvfxh9Jht-144" style="edgeStyle=none;rounded=0;orthogonalLoop=1;jettySize=auto;html=1;dashed=1;fontColor=#FF0000;strokeColor=#666666;" edge="1" parent="1" source="-mIfDHSUPJoPvfxh9Jht-143" target="-mIfDHSUPJoPvfxh9Jht-140">
          <mxGeometry relative="1" as="geometry" />
        </mxCell>
        <mxCell id="-mIfDHSUPJoPvfxh9Jht-143" value="&lt;b&gt;&lt;font color=&quot;#000000&quot;&gt;refer参数：&lt;/font&gt;&lt;/b&gt;&lt;br&gt;- _oid: page_B&lt;br&gt;- _pgrefer:&amp;nbsp;&amp;nbsp;&lt;font color=&quot;#ff0000&quot;&gt;[e][4][5][p_h5|p_h5_biz]&lt;b&gt;[_refer_from_h5]&lt;br&gt;&lt;/b&gt;&lt;/font&gt;" style="shape=callout;whiteSpace=wrap;html=1;perimeter=calloutPerimeter;dashed=1;fontColor=#666666;fillColor=none;strokeColor=#666666;align=left;" vertex="1" parent="1">
          <mxGeometry x="1524" y="1540" width="306" height="100" as="geometry" />
        </mxCell>
      </root>
    </mxGraphModel>
  </diagram>
</mxfile>
